HIERARCHY
ROOT Hips
{
	OFFSET 53.316700 -37.102116 97.212494
	CHANNELS 6 Xposition Yposition Zposition Xrotation Yrotation Zrotation
	JOINT spine
	{
		OFFSET 0.000000 -0.458069 7.965683
		CHANNELS 3 Xrotation Yrotation Zrotation
		JOINT spine1
		{
			OFFSET 0.000000 -0.000004 10.243103
			CHANNELS 3 Xrotation Yrotation Zrotation
			JOINT spine2
			{
				OFFSET 0.000000 0.000000 9.814751
				CHANNELS 3 Xrotation Yrotation Zrotation
				JOINT Neck
				{
					OFFSET 0.000000 -1.201385 25.198601
					CHANNELS 3 Xrotation Yrotation Zrotation
					JOINT Head
					{
						OFFSET 0.000000 -0.000004 7.613144
						CHANNELS 3 Xrotation Yrotation Zrotation
						End Site
						{
							OFFSET 0.000000 6.077328 18.428101
						}
					}
				}
				JOINT RightShoulder
				{
					OFFSET -4.132702 0.575447 10.599205
					CHANNELS 3 Xrotation Yrotation Zrotation
					JOINT RightArm
					{
						OFFSET 0.000000 0.000000 13.901794
						CHANNELS 3 Xrotation Yrotation Zrotation
						JOINT RightArmRoll
						{
							OFFSET 0.000000 -0.000004 7.017883
							CHANNELS 3 Xrotation Yrotation Zrotation
							JOINT RightForeArm
							{
								OFFSET 0.000000 -0.000004 20.440598
								CHANNELS 3 Xrotation Yrotation Zrotation
								JOINT RightForeArmRoll
								{
									OFFSET 0.000000 0.000000 7.875168
									CHANNELS 3 Xrotation Yrotation Zrotation
									JOINT RightHand
									{
										OFFSET 0.000000 -0.000004 15.803696
										CHANNELS 3 Xrotation Yrotation Zrotation
										End Site
										{
											OFFSET 0.000000 0.000000 0.100006
										}
									}
								}
							}
						}
					}
				}
				JOINT LeftShoulder
				{
					OFFSET 4.132702 0.575447 10.599205
					CHANNELS 3 Xrotation Yrotation Zrotation
					JOINT LeftArm
					{
						OFFSET 0.000000 0.000000 13.901794
						CHANNELS 3 Xrotation Yrotation Zrotation
						JOINT LeftArmRoll
						{
							OFFSET 0.000000 -0.000004 7.017883
							CHANNELS 3 Xrotation Yrotation Zrotation
							JOINT LeftForeArm
							{
								OFFSET 0.000000 -0.000004 20.440598
								CHANNELS 3 Xrotation Yrotation Zrotation
								JOINT LeftForeArmRoll
								{
									OFFSET 0.000000 0.000000 7.875153
									CHANNELS 3 Xrotation Yrotation Zrotation
									JOINT LeftHand
									{
										OFFSET 0.000000 -0.000004 15.803696
										CHANNELS 3 Xrotation Yrotation Zrotation
										End Site
										{
											OFFSET 0.000000 0.000000 0.100006
										}
									}
								}
							}
						}
					}
				}
			}
		}
	}
	JOINT RightUpLeg
	{
		OFFSET -7.060482 1.086102 -1.294701
		CHANNELS 3 Xrotation Yrotation Zrotation
		JOINT RightUpLegRoll
		{
			OFFSET 0.000000 -0.000004 18.530800
			CHANNELS 3 Xrotation Yrotation Zrotation
			JOINT RightLeg
			{
				OFFSET 0.000000 0.000004 -22.947601
				CHANNELS 3 Xrotation Yrotation Zrotation
				JOINT RightLegRoll
				{
					OFFSET 0.000000 -0.000004 23.022598
					CHANNELS 3 Xrotation Yrotation Zrotation
					JOINT RightFoot
					{
						OFFSET 0.000000 -0.000004 19.162506
						CHANNELS 3 Xrotation Yrotation Zrotation
						JOINT RightToeBase
						{
							OFFSET 0.000000 0.000000 16.018799
							CHANNELS 3 Xrotation Yrotation Zrotation
							End Site
							{
								OFFSET 0.006790 0.894203 7.757812
							}
						}
					}
				}
			}
		}
	}
	JOINT LeftUpLeg
	{
		OFFSET 7.060482 1.086102 -1.294701
		CHANNELS 3 Xrotation Yrotation Zrotation
		JOINT LeftUpLegRoll
		{
			OFFSET 0.000000 -0.000004 18.530899
			CHANNELS 3 Xrotation Yrotation Zrotation
			JOINT LeftLeg
			{
				OFFSET 0.000000 -0.000004 22.947502
				CHANNELS 3 Xrotation Yrotation Zrotation
				JOINT LeftLegRoll
				{
					OFFSET 0.000000 -0.000004 23.235504
					CHANNELS 3 Xrotation Yrotation Zrotation
					JOINT LeftFoot
					{
						OFFSET 0.000000 -0.000004 18.949600
						CHANNELS 3 Xrotation Yrotation Zrotation
						JOINT LeftToeBase
						{
							OFFSET 0.000000 0.000000 16.018799
							CHANNELS 3 Xrotation Yrotation Zrotation
							End Site
							{
								OFFSET -0.030430 0.894203 7.757812
							}
						}
					}
				}
			}
		}
	}
}
MOTION
Frames: 9
Frame Time: 0.041667
53.703495 2.165123 54.417591 -13.158826 -0.120697 1.072492 4.835076 -0.300383 -0.598868 13.669984 -0.644865 -1.175631 15.315036 -0.658529 -1.167786 -15.553230 10.766467 0.970012 29.027696 -11.082825 1.757384 -8.440335 -55.486568 -9.718181 -55.453247 -136.585506 -73.539752 0.000003 0.000009 -0.000005 60.483463 -8.851534 1.748795 0.000001 0.000005 -2.999987 -5.000261 -7.998952 0.000125 -17.345568 60.015294 20.510353 117.321613 49.040977 -87.668340 0.000000 0.000002 0.000002 70.903729 9.731975 -1.820683 0.000003 -0.000007 2.999967 -4.999918 7.998881 -0.000056 -77.674899 -171.916025 4.961689 179.999991 0.000006 -1.710998 81.985855 4.559459 2.034865 -0.000001 0.000002 2.155670 66.864840 7.170684 1.599941 30.534665 -7.318812 0.649685 -78.702344 172.514227 -1.847874 -0.000020 -0.000004 -1.631120 -96.731004 -4.726369 -1.896089 -0.000001 0.000003 -2.253749 63.832906 -7.273748 -1.600604 27.558606 7.243983 -3.102956 
53.703400 2.171513 54.413109 -13.144031 -0.121405 1.071270 4.832330 -0.301003 -0.598350 13.664488 -0.646424 -1.173867 15.309541 -0.660093 -1.166005 -15.557733 10.764887 0.968554 29.031675 -11.078871 1.754803 -8.445029 -55.480732 -9.723410 -55.439799 -136.576886 -73.532314 0.000002 0.000007 -0.000005 60.501276 -8.847650 1.747197 0.000003 0.000003 -2.999990 -5.000264 -7.998954 0.000125 -17.349353 60.018266 20.514844 117.349904 49.036404 -87.705810 0.000001 0.000001 0.000001 70.900266 9.727039 -1.816816 0.000006 -0.000006 2.999973 -4.999921 7.998883 -0.000056 -77.694372 -171.917282 4.963267 179.999991 0.000005 -1.710998 81.987590 4.558651 2.033034 -0.000001 0.000002 2.155440 66.859308 7.172585 1.594592 30.534665 -7.318817 0.649680 -78.721434 172.515402 -1.847499 -0.000020 -0.000003 -1.631150 -96.731174 -4.728051 -1.895213 -0.000001 0.000003 -2.253420 63.827489 -7.273725 -1.600660 27.558901 7.243981 -3.103779 
53.705299 2.178993 54.397598 -13.129729 -0.122279 1.070028 4.829579 -0.301592 -0.597840 13.658990 -0.647922 -1.172089 15.304048 -0.661597 -1.164212 -15.561720 10.763232 0.966974 29.035933 -11.074714 1.752132 -8.449695 -55.474680 -9.728594 -55.426627 -136.568499 -73.524855 0.000003 0.000007 -0.000007 60.517675 -8.843988 1.745524 0.000004 0.000001 -2.999990 -5.000262 -7.998956 0.000127 -17.353515 60.021285 20.519782 117.377675 49.031329 -87.743192 -0.000001 -0.000000 -0.000001 70.895089 9.722521 -1.813330 0.000004 -0.000008 2.999970 -4.999919 7.998882 -0.000055 -77.713462 -171.918621 4.965750 179.999991 0.000006 -1.710998 81.989249 4.557919 2.031119 -0.000001 0.000002 2.155220 66.853577 7.174502 1.589359 30.534760 -7.318822 0.649667 -78.740053 172.516604 -1.846250 -0.000020 -0.000003 -1.631190 -96.731495 -4.729674 -1.895321 -0.000001 0.000003 -2.253109 63.822285 -7.273687 -1.600701 27.559006 7.243981 -3.104590 
53.703495 2.177944 54.400997 -13.115728 -0.123267 1.068769 4.826829 -0.302158 -0.597335 13.653494 -0.649377 -1.170311 15.298550 -0.663059 -1.162420 -15.565504 10.761492 0.965319 29.040270 -11.070364 1.749339 -8.454359 -55.468533 -9.733759 -55.412993 -136.560862 -73.516386 0.000003 0.000008 -0.000006 60.533187 -8.840503 1.744124 0.000003 0.000006 -2.999988 -5.000263 -7.998954 0.000127 -17.357877 60.024167 20.524935 117.407209 49.025069 -87.783353 -0.000000 0.000001 0.000002 70.888812 9.718279 -1.810101 0.000004 -0.000008 2.999971 -4.999921 7.998881 -0.000057 -77.732375 -171.919864 4.968168 179.999991 0.000005 -1.710998 81.990738 4.557300 2.029318 -0.000001 0.000002 2.154999 66.847833 7.176422 1.584030 30.534958 -7.318823 0.649645 -78.758317 172.518134 -1.845784 -0.000020 -0.000003 -1.631250 -96.731830 -4.731475 -1.894432 -0.000001 0.000003 -2.252799 63.817271 -7.273650 -1.600729 27.559002 7.243982 -3.105400 
53.702301 2.176014 54.384495 -13.101932 -0.124322 1.067495 4.824088 -0.302713 -0.596833 13.647998 -0.650808 -1.168529 15.293053 -0.664496 -1.160626 -15.569080 10.759763 0.963614 29.044830 -11.066002 1.746578 -8.458995 -55.462287 -9.738902 -55.399511 -136.553390 -73.507923 0.000003 0.000008 -0.000005 60.548083 -8.837081 1.742559 0.000002 0.000002 -2.999989 -5.000265 -7.998955 0.000128 -17.362360 60.027049 20.530246 117.436551 49.018632 -87.823385 0.000000 -0.000001 0.000004 70.881845 9.714212 -1.806981 0.000004 -0.000010 2.999968 -4.999919 7.998886 -0.000054 -77.751185 -171.921052 4.970586 179.999991 0.000006 -1.710998 81.992220 4.556668 2.027612 -0.000001 0.000001 2.154779 66.842116 7.178381 1.578605 30.535266 -7.318819 0.649633 -78.776274 172.519787 -1.845640 -0.000020 -0.000004 -1.631310 -96.732076 -4.733217 -1.894542 -0.000001 0.000003 -2.252490 63.812272 -7.273660 -1.600765 27.558811 7.243986 -3.106188 
53.701401 2.175522 54.381397 -13.088131 -0.125394 1.066227 4.821343 -0.303263 -0.596332 13.642501 -0.652233 -1.166740 15.287557 -0.665928 -1.158823 -15.572657 10.758035 0.961910 29.049273 -11.061646 1.743783 -8.463634 -55.456044 -9.744029 -55.386168 -136.545986 -73.499556 0.000004 0.000007 -0.000007 60.562871 -8.833687 1.741077 0.000003 0.000004 -2.999990 -5.000262 -7.998953 0.000126 -17.366905 60.029925 20.535618 117.464815 49.012556 -87.862215 -0.000001 0.000001 0.000001 70.874674 9.710196 -1.803837 0.000003 -0.000005 2.999971 -4.999921 7.998883 -0.000054 -77.770050 -171.922036 4.972044 179.999991 0.000005 -1.710998 81.993730 4.556057 2.025808 -0.000001 0.000002 2.154570 66.836283 7.180326 1.573287 30.535570 -7.318823 0.649618 -78.794367 172.521276 -1.844496 -0.000020 -0.000004 -1.631370 -96.732404 -4.735021 -1.893666 -0.000001 0.000003 -2.252180 63.807361 -7.273594 -1.600879 27.558703 7.243978 -3.106984 
53.699402 2.182392 54.406090 -13.074235 -0.126433 1.064968 4.818610 -0.303820 -0.595829 13.637004 -0.653671 -1.164967 15.282062 -0.667371 -1.157027 -15.576233 10.756309 0.960216 29.053822 -11.057280 1.741020 -8.468273 -55.449795 -9.749165 -55.372607 -136.538432 -73.491128 0.000004 0.000008 -0.000005 60.577979 -8.830255 1.739629 0.000002 0.000004 -2.999990 -5.000263 -7.998957 0.000129 -17.371352 60.032807 20.540884 117.494253 49.006180 -87.902281 -0.000000 -0.000001 0.000000 70.867884 9.706040 -1.800647 0.000004 -0.000009 2.999969 -4.999919 7.998890 -0.000056 -77.788772 -171.923238 4.974682 179.999991 0.000005 -1.710998 81.995219 4.555440 2.024005 -0.000002 0.000002 2.154349 66.830553 7.182284 1.567865 30.535870 -7.318817 0.649605 -78.812317 172.522956 -1.844652 -0.000020 -0.000005 -1.631430 -96.732739 -4.736816 -1.893800 -0.000001 0.000003 -2.251869 63.802457 -7.273530 -1.600991 27.558498 7.243989 -3.107774 
53.700294 2.182644 54.398178 -13.060133 -0.127392 1.063718 4.815858 -0.304393 -0.595323 13.631509 -0.655141 -1.163187 15.276567 -0.668846 -1.155243 -15.580124 10.754660 0.958606 29.058179 -11.053022 1.738283 -8.472926 -55.443647 -9.754327 -55.358919 -136.530837 -73.482618 0.000003 0.000008 -0.000005 60.593682 -8.826717 1.738060 0.000002 0.000003 -2.999991 -5.000262 -7.998957 0.000126 -17.375641 60.035703 20.545959 117.522748 49.000327 -87.940981 -0.000001 0.000002 0.000001 70.861915 9.701720 -1.797362 0.000006 -0.000009 2.999971 -4.999920 7.998885 -0.000057 -77.807794 -171.924345 4.976496 179.999991 0.000005 -1.710998 81.996790 4.554756 2.022194 -0.000001 0.000002 2.154130 66.824829 7.184204 1.562533 30.536078 -7.318819 0.649591 -78.830697 172.524377 -1.843995 -0.000020 -0.000004 -1.631480 -96.732984 -4.738561 -1.892902 -0.000001 0.000003 -2.251560 63.797348 -7.273514 -1.601031 27.558504 7.243988 -3.108579 
53.701897 2.183426 54.385189 -13.045628 -0.128219 1.062481 4.813109 -0.304991 -0.594811 13.626013 -0.656659 -1.161416 15.271074 -0.670370 -1.153456 -15.584212 10.753004 0.957043 29.062346 -11.048961 1.735659 -8.477611 -55.437702 -9.759535 -55.345648 -136.522368 -73.475200 0.000003 0.000008 -0.000005 60.610484 -8.822987 1.736328 0.000001 0.000003 -2.999989 -5.000266 -7.998956 0.000126 -17.379664 60.038640 20.550726 117.551749 48.994962 -87.979742 -0.000000 0.000001 0.000002 70.857277 9.697098 -1.793742 0.000004 -0.000005 2.999971 -4.999920 7.998882 -0.000056 -77.826925 -171.925847 4.979576 179.999991 0.000006 -1.710997 81.998436 4.554011 2.020374 -0.000000 0.000002 2.153910 66.819201 7.186132 1.557200 30.536068 -7.318820 0.649569 -78.849473 172.525565 -1.842942 -0.000020 -0.000003 -1.631520 -96.733305 -4.740184 -1.893011 -0.000001 0.000003 -2.251241 63.792130 -7.273477 -1.601073 27.558707 7.243984 -3.109398 
